<?xml version="1.0" standalone="no"?>
<!DOCTYPE svg PUBLIC "-//W3C//DTD SVG 20010904//EN"
 "http://www.w3.org/TR/2001/REC-SVG-20010904/DTD/svg10.dtd">
<svg version="1.0" xmlns="http://www.w3.org/2000/svg"
 width="600.000000pt" height="166.000000pt" viewBox="0 0 600.000000 166.000000"
 preserveAspectRatio="xMidYMid meet">

<g transform="translate(0.000000,166.000000) scale(0.100000,-0.100000)"
fill="#000000" stroke="none">
<path d="M415 1567 c-45 -44 -51 -61 -46 -129 2 -25 -1 -28 -31 -28 -43 0
-121 -24 -164 -50 -76 -48 -119 -139 -100 -214 13 -52 97 -126 164 -146 29 -8
30 -6 71 74 23 44 54 95 69 111 35 38 95 90 119 103 17 10 16 12 -7 38 -14 15
-19 24 -12 20 6 -4 12 -4 13 1 0 4 3 20 5 36 3 19 0 27 -10 27 -8 0 -18 -4
-21 -10 -3 -5 -12 -10 -18 -10 -7 0 4 14 23 30 19 16 29 30 22 30 -7 0 -10 5
-6 11 3 6 0 15 -7 20 -11 7 -11 11 -2 17 7 4 9 13 4 21 -7 10 -13 11 -30 2
-27 -15 -28 3 -2 21 12 8 19 24 18 41 -1 15 -3 27 -4 27 -2 0 -23 -19 -48 -43z"/>
<path d="M1108 1593 c-16 -2 -28 -9 -28 -14 0 -5 -6 -9 -14 -9 -16 0 -69 -58
-91 -99 -8 -16 -17 -47 -21 -70 -5 -33 -4 -41 8 -41 53 0 205 -94 262 -162
l33 -41 31 34 c18 19 34 42 37 52 6 15 16 21 36 19 6 -1 4 45 -6 123 -9 73
-67 160 -125 190 -31 15 -86 23 -122 18z"/>
<path d="M1816 1535 c5 -13 34 -15 175 -15 146 0 168 2 163 15 -5 13 -34 15
-175 15 -146 0 -168 -2 -163 -15z"/>
<path d="M2620 1535 c0 -13 22 -15 162 -13 118 2 162 6 166 16 3 9 -34 12
-162 12 -142 0 -166 -2 -166 -15z"/>
<path d="M3090 1535 c0 -13 24 -15 160 -15 136 0 160 2 160 15 0 13 -24 15
-160 15 -136 0 -160 -2 -160 -15z"/>
<path d="M3777 1544 c-18 -19 19 -24 164 -24 135 0 159 2 159 15 0 13 -24 15
-158 15 -87 0 -162 -3 -165 -6z"/>
<path d="M4348 1544 c-4 -4 -5 -11 -2 -15 3 -5 166 -9 362 -8 275 0 351 3 332
12 -28 12 -680 24 -692 11z"/>
<path d="M1862 1458 c4 -10 49 -14 173 -16 149 -2 166 -1 155 13 -10 12 -41
15 -172 15 -123 0 -159 -3 -156 -12z"/>
<path d="M2580 1455 c-11 -13 7 -15 154 -15 141 0 166 2 166 15 0 13 -24 15
-154 15 -124 0 -156 -3 -166 -15z"/>
<path d="M3090 1455 c0 -13 24 -15 160 -15 136 0 160 2 160 15 0 13 -24 15
-160 15 -136 0 -160 -2 -160 -15z"/>
<path d="M3777 1464 c-20 -20 7 -24 159 -24 128 0 165 3 162 13 -4 9 -46 13
-159 15 -86 1 -158 -1 -162 -4z"/>
<path d="M4347 1463 c-4 -3 -7 -10 -7 -15 0 -4 195 -8 433 -8 382 1 430 2 413
15 -17 13 -84 15 -426 15 -224 0 -410 -3 -413 -7z"/>
<path d="M1902 1378 c4 -10 46 -14 167 -16 129 -2 162 0 159 10 -4 10 -46 14
-167 16 -129 2 -162 0 -159 -10z"/>
<path d="M2547 1383 c-20 -19 7 -23 150 -21 114 2 157 6 161 16 3 9 -32 12
-150 12 -85 0 -158 -3 -161 -7z"/>
<path d="M3090 1375 c0 -13 24 -15 160 -15 136 0 160 2 160 15 0 13 -24 15
-160 15 -136 0 -160 -2 -160 -15z"/>
<path d="M3770 1375 c0 -13 25 -15 165 -15 140 0 165 2 165 15 0 13 -25 15
-165 15 -140 0 -165 -2 -165 -15z"/>
<path d="M4340 1375 c0 -13 25 -15 165 -15 140 0 165 2 165 15 0 13 -25 15
-165 15 -140 0 -165 -2 -165 -15z"/>
<path d="M4890 1375 c10 -12 43 -15 176 -15 139 0 164 2 164 15 0 13 -26 15
-176 15 -156 0 -175 -2 -164 -15z"/>
<path d="M947 1343 c-4 -3 -7 -23 -7 -44 0 -36 2 -38 63 -67 39 -18 85 -52
123 -90 l61 -61 27 27 c14 16 26 33 26 39 0 34 -152 153 -238 186 -49 19 -47
19 -55 10z"/>
<path d="M1400 1301 c0 -5 -3 -18 -6 -28 -7 -17 -6 -17 12 -1 17 17 19 17 37
0 20 -17 20 -17 2 11 -16 26 -45 37 -45 18z"/>
<path d="M1950 1290 c10 -19 21 -20 165 -20 85 0 155 2 155 4 0 2 -3 11 -6 20
-5 14 -29 16 -165 16 -157 0 -159 0 -149 -20z"/>
<path d="M2506 1294 c-3 -9 -6 -18 -6 -20 0 -2 67 -4 150 -4 139 0 150 1 160
20 10 20 8 20 -144 20 -131 0 -155 -2 -160 -16z"/>
<path d="M3090 1290 c0 -19 7 -20 160 -20 153 0 160 1 160 20 0 19 -7 20 -160
20 -153 0 -160 -1 -160 -20z"/>
<path d="M3772 1293 c3 -16 20 -18 166 -21 157 -2 162 -2 162 18 0 19 -6 20
-166 20 -152 0 -165 -1 -162 -17z"/>
<path d="M4342 1293 c3 -16 20 -18 166 -21 157 -2 162 -2 162 18 0 19 -6 20
-166 20 -152 0 -165 -1 -162 -17z"/>
<path d="M4910 1290 c-11 -20 -8 -20 155 -20 91 0 165 2 165 4 0 2 3 11 6 20
5 14 -12 16 -155 16 -150 0 -161 -1 -171 -20z"/>
<path d="M1370 1290 c0 -5 5 -10 10 -10 6 0 10 5 10 10 0 6 -4 10 -10 10 -5 0
-10 -4 -10 -10z"/>
<path d="M1466 1285 c4 -8 8 -15 10 -15 2 0 4 7 4 15 0 8 -4 15 -10 15 -5 0
-7 -7 -4 -15z"/>
<path d="M431 1213 c-55 -55 -88 -98 -111 -146 -18 -37 -31 -69 -29 -71 2 -2
22 -7 45 -10 l41 -7 29 57 c30 60 81 117 146 164 l37 27 -29 31 c-16 18 -34
32 -40 32 -6 0 -46 -35 -89 -77z"/>
<path d="M1490 1280 c0 -5 5 -10 11 -10 5 0 7 5 4 10 -3 6 -8 10 -11 10 -2 0
-4 -4 -4 -10z"/>
<path d="M930 1216 c0 -13 -3 -31 -6 -40 -4 -10 7 -21 38 -36 24 -12 66 -45
95 -72 l52 -51 32 27 32 27 -60 59 c-57 55 -108 88 -160 104 -20 6 -23 4 -23
-18z"/>
<path d="M1990 1229 c0 -37 9 -39 166 -39 85 0 154 3 154 6 0 3 -4 14 -10 24
-9 16 -24 18 -160 17 -82 0 -150 -4 -150 -8z"/>
<path d="M2476 1223 c-3 -8 -6 -19 -6 -24 0 -5 62 -9 141 -9 123 0 144 2 155
18 7 9 14 20 14 24 0 4 -67 7 -149 7 -123 -1 -151 -4 -155 -16z"/>
<path d="M3097 1234 c-4 -4 -7 -16 -7 -26 0 -17 12 -18 161 -18 l160 0 -3 23
c-3 22 -6 22 -153 25 -83 2 -154 0 -158 -4z"/>
<path d="M3774 1225 c-12 -31 8 -35 167 -35 l160 0 -3 23 c-3 22 -5 22 -161
24 -127 1 -159 -1 -163 -12z"/>
<path d="M4347 1233 c-4 -3 -7 -15 -7 -25 0 -17 20 -18 425 -18 410 0 425 1
435 19 5 11 6 22 2 25 -12 7 -848 7 -855 -1z"/>
<path d="M550 1176 c-25 -18 -58 -48 -73 -65 -32 -39 -81 -120 -75 -126 2 -2
22 -7 44 -11 38 -6 41 -4 53 24 15 35 85 108 124 128 15 8 27 17 27 20 0 8
-43 64 -49 64 -3 0 -26 -16 -51 -34z"/>
<path d="M2030 1154 c0 -3 5 -14 10 -25 10 -17 23 -19 160 -19 l150 0 -12 25
-11 25 -149 0 c-81 0 -148 -3 -148 -6z"/>
<path d="M2440 1141 c-5 -11 -10 -22 -10 -25 0 -3 65 -6 144 -6 147 0 156 2
156 41 0 5 -62 9 -140 9 -127 0 -140 -2 -150 -19z"/>
<path d="M3090 1135 l0 -25 160 0 160 0 0 25 0 25 -160 0 -160 0 0 -25z"/>
<path d="M3777 1154 c-4 -4 -7 -16 -7 -26 0 -17 12 -18 166 -18 l165 0 -3 23
c-3 22 -6 22 -159 25 -85 1 -158 -1 -162 -4z"/>
<path d="M4347 1153 c-4 -3 -7 -15 -7 -25 0 -17 17 -18 338 -18 274 0 348 3
390 15 28 9 54 20 57 25 7 11 -767 14 -778 3z"/>
<path d="M906 1108 c-6 -27 -3 -36 16 -48 13 -8 42 -32 65 -54 42 -37 43 -38
68 -22 14 9 25 21 25 26 0 25 -132 130 -163 130 -3 0 -7 -15 -11 -32z"/>
<path d="M619 1102 c-42 -27 -82 -72 -108 -119 -10 -20 -9 -23 22 -28 29 -6
38 -1 82 43 28 27 59 54 69 59 19 11 19 11 0 42 l-20 31 -45 -28z"/>
<path d="M2082 1055 l11 -25 288 0 c275 0 289 1 299 19 5 11 10 22 10 25 0 3
-63 6 -140 6 -134 0 -140 -1 -151 -22 l-12 -23 -10 23 c-10 21 -15 22 -158 22
l-149 0 12 -25z"/>
<path d="M3100 1055 l0 -25 170 0 170 0 -12 25 -11 25 -159 0 -158 0 0 -25z"/>
<path d="M3762 1055 l-12 -25 169 0 c159 0 169 1 174 19 3 11 2 22 -1 25 -3 3
-76 6 -162 6 l-157 0 -11 -25z"/>
<path d="M4347 1073 c-4 -3 -7 -15 -7 -25 0 -17 12 -18 165 -18 l165 0 0 25 0
25 -158 0 c-87 0 -162 -3 -165 -7z"/>
<path d="M669 1016 c-30 -21 -69 -65 -69 -79 0 -3 12 -7 27 -10 21 -4 34 1 54
21 14 15 34 32 44 37 15 9 16 14 6 33 -15 28 -18 27 -62 -2z"/>
<path d="M877 1018 c-5 -16 3 -30 31 -54 38 -34 57 -40 81 -25 18 11 -2 41
-50 77 -41 30 -55 30 -62 2z"/>
<path d="M2120 995 c0 -2 5 -16 12 -30 l11 -25 237 0 238 0 16 25 c9 13 16 27
16 30 0 3 -119 5 -265 5 -146 0 -265 -2 -265 -5z"/>
<path d="M3120 992 c0 -5 10 -18 23 -30 23 -22 26 -22 454 -22 l432 0 21 28
22 27 -174 3 c-107 2 -199 -1 -240 -9 -51 -9 -80 -9 -124 0 -65 13 -414 15
-414 3z"/>
<path d="M4342 973 l3 -28 160 0 160 0 3 28 3 27 -166 0 -166 0 3 -27z"/>
<path d="M713 945 c-23 -16 -31 -45 -14 -45 18 0 71 35 68 45 -6 17 -31 16
-54 0z"/>
<path d="M855 949 c-9 -14 24 -49 47 -49 26 0 22 25 -7 44 -29 19 -32 19 -40
5z"/>
<path d="M2183 922 c-22 -3 -22 -4 -6 -38 l17 -34 188 0 188 0 20 32 c10 18
18 34 16 35 -4 5 -395 9 -423 5z"/>
<path d="M3196 909 c3 -6 30 -22 58 -35 50 -23 56 -24 342 -24 l291 0 49 26
c27 14 53 30 58 35 6 5 -150 9 -398 9 -294 0 -405 -3 -400 -11z"/>
<path d="M4342 888 l3 -33 160 0 160 0 3 33 3 32 -166 0 -166 0 3 -32z"/>
<path d="M755 890 c-3 -5 3 -10 14 -10 12 0 21 5 21 10 0 6 -6 10 -14 10 -8 0
-18 -4 -21 -10z"/>
<path d="M836 891 c-4 -5 -2 -12 3 -15 5 -4 12 -2 15 3 4 5 2 12 -3 15 -5 4
-12 2 -15 -3z"/>
<path d="M281 873 c-23 -5 -24 -6 -18 -83 7 -87 50 -215 90 -264 l23 -28 27
35 27 35 -30 58 c-32 63 -56 179 -46 225 5 27 3 29 -22 28 -15 -1 -38 -4 -51
-6z"/>
<path d="M370 829 c0 -86 51 -239 79 -239 4 0 18 11 31 25 l23 24 -23 53 c-16
36 -23 74 -24 120 l-1 68 -42 0 -43 0 0 -51z"/>
<path d="M473 864 c-8 -22 9 -127 30 -177 l16 -38 30 22 c29 22 30 23 16 57
-8 19 -15 59 -15 88 0 37 -4 54 -12 54 -7 0 -23 3 -35 6 -16 5 -25 1 -30 -12z"/>
<path d="M194 831 c-72 -51 -119 -123 -154 -235 -18 -58 -5 -137 33 -193 39
-57 86 -83 149 -83 42 0 48 -3 48 -21 0 -56 34 -135 76 -178 24 -24 46 -42 49
-39 3 3 -1 13 -10 22 -15 14 -15 16 -1 16 11 0 6 10 -16 31 -30 28 -31 30 -9
23 21 -5 23 -4 16 12 -5 11 -9 34 -9 51 0 18 -3 33 -8 33 -4 0 -8 9 -8 19 0
11 -4 23 -10 26 -5 3 -14 14 -20 24 -8 16 -6 17 15 13 27 -5 32 6 13 27 -11
11 -10 13 0 7 10 -6 10 -2 0 18 -8 19 -8 32 0 50 9 20 4 37 -34 112 -46 92
-64 161 -64 245 0 27 -4 49 -8 49 -5 0 -27 -13 -48 -29z"/>
<path d="M574 810 c7 -51 24 -100 35 -100 3 0 14 7 24 14 14 11 16 19 7 40 -5
15 -10 40 -10 56 0 27 -15 40 -47 40 -13 0 -14 -9 -9 -50z"/>
<path d="M660 812 c0 -38 22 -69 37 -50 7 9 6 22 -3 46 -17 39 -34 42 -34 4z"/>
<path d="M2292 833 c48 -2 129 -2 180 0 51 1 12 3 -87 3 -99 0 -141 -2 -93 -3z"/>
<path d="M3415 829 c50 -10 329 -9 370 1 17 4 -69 8 -190 8 -142 0 -206 -3
-180 -9z"/>
<path d="M4428 833 c45 -2 119 -2 165 0 45 1 8 3 -83 3 -91 0 -128 -2 -82 -3z"/>
<path d="M730 800 c0 -5 7 -10 16 -10 8 0 12 5 9 10 -3 6 -10 10 -16 10 -5 0
-9 -4 -9 -10z"/>
<path d="M790 760 c0 -5 5 -10 11 -10 5 0 7 5 4 10 -3 6 -8 10 -11 10 -2 0 -4
-4 -4 -10z"/>
<path d="M770 699 c0 -15 7 -19 36 -19 28 0 35 4 32 17 -5 26 -68 28 -68 2z"/>
<path d="M749 632 c-5 -13 -9 -25 -9 -28 0 -2 32 -4 70 -4 71 0 81 7 61 40 -7
9 -27 14 -62 15 -45 0 -53 -3 -60 -23z"/>
<path d="M1814 597 c-3 -8 -4 -47 -2 -88 l3 -74 88 -3 c73 -2 87 0 87 13 0 12
-13 15 -65 15 -63 0 -65 1 -65 25 0 24 3 25 60 25 47 0 60 3 60 15 0 12 -13
15 -60 15 -53 0 -60 2 -60 20 0 18 7 20 65 20 51 0 65 3 65 15 0 21 -168 22
-176 2z"/>
<path d="M2040 520 c0 -83 2 -90 20 -90 16 0 19 8 22 57 l3 57 43 -57 c32 -42
49 -57 67 -57 25 0 25 1 25 90 0 83 -1 90 -20 90 -18 0 -20 -7 -20 -55 0 -30
-3 -55 -7 -55 -5 0 -26 25 -48 55 -27 37 -47 54 -62 55 -22 0 -23 -3 -23 -90z"/>
<path d="M2272 523 l3 -88 88 -3 c73 -2 87 0 87 13 0 12 -13 15 -65 15 -63 0
-65 1 -65 25 0 24 3 25 60 25 47 0 60 3 60 15 0 12 -13 15 -60 15 -53 0 -60 2
-60 20 0 18 7 20 65 20 51 0 65 3 65 15 0 12 -17 15 -90 15 l-91 0 3 -87z"/>
<path d="M2490 520 c0 -89 0 -90 25 -90 22 0 25 4 25 35 0 30 3 35 24 35 16 0
34 -13 53 -36 23 -28 34 -35 56 -32 l28 3 -34 37 -33 36 23 11 c17 8 23 19 23
41 0 39 -27 50 -121 50 l-69 0 0 -90z m144 45 c7 -19 -23 -35 -63 -35 -26 0
-31 4 -31 25 0 23 4 25 44 25 30 0 46 -5 50 -15z"/>
<path d="M2770 597 c-52 -26 -62 -104 -19 -143 25 -23 118 -31 159 -14 28 11
31 17 28 49 -3 35 -4 36 -47 36 -27 0 -46 -5 -48 -12 -3 -8 5 -13 20 -13 30 0
40 -10 26 -27 -19 -22 -85 -16 -103 9 -21 30 -20 61 2 81 22 20 75 22 94 4 15
-15 61 -7 50 9 -22 34 -114 45 -162 21z"/>
<path d="M2990 520 c0 -89 0 -90 25 -90 25 0 25 1 25 90 0 89 0 90 -25 90 -25
0 -25 -1 -25 -90z"/>
<path d="M3098 599 c-21 -12 -24 -52 -5 -67 7 -6 34 -16 60 -22 51 -13 65 -26
49 -42 -16 -16 -60 -13 -81 6 -20 18 -51 22 -51 6 0 -5 9 -19 20 -30 15 -15
33 -20 75 -20 42 0 60 5 75 20 38 38 17 69 -63 91 -27 8 -48 19 -48 24 1 14
51 19 64 6 13 -13 57 -15 57 -2 0 33 -110 55 -152 30z"/>
<path d="M3290 520 c0 -89 0 -90 25 -90 25 0 25 1 25 90 0 89 0 90 -25 90 -25
0 -25 -1 -25 -90z"/>
<path d="M3390 520 c0 -83 1 -90 20 -90 18 0 20 7 20 55 0 30 3 55 8 54 4 0
25 -24 47 -52 28 -36 49 -53 68 -55 l27 -3 0 90 c0 90 0 91 -25 91 -22 0 -24
-4 -27 -57 l-3 -57 -44 57 c-31 41 -50 57 -67 57 -23 0 -24 -2 -24 -90z"/>
<path d="M3674 600 c-58 -23 -70 -95 -25 -141 25 -25 37 -29 85 -29 30 0 67 5
81 12 22 10 26 17 23 47 -3 35 -4 36 -50 39 -38 2 -48 0 -48 -12 0 -10 9 -16
26 -16 19 0 25 -5 22 -17 -5 -26 -74 -30 -99 -7 -23 21 -25 67 -3 88 19 20 78
21 93 2 12 -14 51 -11 51 5 0 31 -103 51 -156 29z"/>
<path d="M4002 585 c-32 -27 -42 -68 -26 -110 17 -45 133 -61 172 -25 12 12
22 25 22 30 0 16 -47 11 -54 -5 -7 -18 -67 -20 -84 -3 -16 16 -16 80 0 96 17
17 68 15 89 -4 12 -11 23 -13 33 -7 14 8 14 12 3 28 -10 12 -31 19 -68 23 -49
4 -59 1 -87 -23z"/>
<path d="M4217 603 c-4 -3 -7 -44 -7 -90 0 -82 0 -83 25 -83 23 0 25 4 25 40
l0 40 45 0 c41 0 45 -2 45 -24 0 -37 10 -56 31 -56 17 0 19 8 19 91 0 88 -1
90 -22 87 -18 -2 -24 -11 -26 -35 -3 -32 -5 -33 -48 -33 -44 0 -44 0 -44 35 0
27 -4 35 -18 35 -10 0 -22 -3 -25 -7z"/>
<path d="M4450 520 l0 -90 90 0 c73 0 90 3 90 15 0 12 -14 15 -65 15 -62 0
-65 1 -65 25 0 22 4 24 57 27 81 4 85 28 4 28 -54 0 -61 2 -61 20 0 16 8 19
63 22 91 4 72 23 -28 26 l-85 3 0 -91z"/>
<path d="M4670 521 c0 -84 1 -91 20 -91 18 0 20 7 20 53 0 30 3 57 7 61 4 3
15 -21 25 -54 16 -51 22 -60 42 -60 19 0 26 9 41 55 9 30 20 57 24 60 4 2 7
-22 7 -53 -1 -52 1 -57 22 -60 21 -3 22 -1 22 88 l0 91 -36 -3 c-34 -3 -38 -7
-57 -56 -11 -29 -23 -50 -26 -47 -3 4 -13 27 -22 53 -14 43 -18 47 -52 50
l-37 3 0 -90z"/>
<path d="M4940 520 c0 -89 0 -90 25 -90 25 0 25 1 25 90 0 89 0 90 -25 90 -25
0 -25 -1 -25 -90z"/>
<path d="M5050 590 c-35 -35 -4 -70 72 -84 41 -7 56 -22 40 -38 -16 -16 -60
-13 -81 6 -22 20 -51 21 -51 2 0 -39 123 -64 162 -33 46 37 21 81 -57 98 -63
14 -76 39 -21 39 19 0 38 -4 41 -10 8 -13 55 -13 55 -1 0 40 -125 56 -160 21z"/>
<path d="M5240 595 c0 -10 11 -15 35 -15 l35 0 0 -75 c0 -73 1 -75 25 -75 24
0 25 2 25 75 l0 75 35 0 c24 0 35 5 35 15 0 12 -17 15 -95 15 -78 0 -95 -3
-95 -15z"/>
<path d="M5460 520 c0 -83 1 -90 20 -90 16 0 20 7 20 35 0 29 4 35 22 35 12 0
39 -16 59 -36 25 -25 44 -35 60 -32 23 3 23 3 -8 38 l-31 36 24 21 c29 26 30
37 4 63 -16 16 -33 20 -95 20 l-75 0 0 -90z m137 44 c8 -22 -15 -35 -57 -32
-28 2 -36 8 -38 26 -3 20 1 22 43 22 33 0 47 -5 52 -16z"/>
<path d="M5670 604 c0 -4 15 -26 34 -49 24 -28 36 -54 38 -81 2 -32 7 -40 26
-42 20 -3 22 1 22 36 0 32 8 50 40 88 39 47 39 49 18 52 -15 3 -30 -6 -47 -27
-15 -17 -30 -31 -34 -31 -5 0 -20 14 -34 30 -22 26 -63 42 -63 24z"/>
<path d="M803 573 l-73 -4 0 -33 c0 -32 2 -34 43 -40 43 -7 129 6 156 23 12 8
12 13 -3 35 -9 14 -24 25 -34 24 -9 -1 -50 -4 -89 -5z"/>
<path d="M920 492 c-21 -9 -66 -16 -113 -16 l-78 -1 3 -40 3 -40 64 -3 c66 -3
193 27 207 49 3 6 -6 24 -22 39 -28 27 -30 27 -64 12z"/>
<path d="M965 401 c-48 -19 -78 -25 -147 -25 -96 -1 -95 0 -82 -65 l7 -31 71
0 c40 0 97 7 127 16 52 15 159 62 159 69 0 2 -17 16 -37 32 l-38 29 -60 -25z"/>
<path d="M1060 325 c-70 -36 -156 -57 -237 -59 -41 0 -73 -5 -73 -11 1 -22 61
-105 102 -138 135 -110 287 -126 373 -40 46 46 56 73 54 139 -2 51 -3 53 -35
59 -18 3 -34 9 -36 13 -5 11 -83 62 -94 62 -5 -1 -29 -12 -54 -25z"/>
<path d="M1320 281 c0 -8 -6 -11 -16 -7 -8 3 -12 2 -9 -4 9 -14 62 -13 71 2 5
8 2 9 -11 4 -11 -4 -22 -2 -27 6 -6 10 -8 10 -8 -1z"/>
</g>
</svg>
